<?xml version="1.0" encoding="UTF-8"?>
<!-- Generator: visioncortex VTracer 0.6.3 -->
<svg version="1.1" xmlns="http://www.w3.org/2000/svg" width="1280" height="904">
<path d="M0 0 C422.4 0 844.8 0 1280 0 C1280 298.32 1280 596.64 1280 904 C857.6 904 435.2 904 0 904 C0 605.68 0 307.36 0 0 Z " fill="#FBFCFE" transform="translate(0,0)"/>
<path d="M0 0 C56.76 0 113.52 0 172 0 C171.18 4.11 170.28 6.94 168.59 10.68 C168.08 11.81 167.57 12.95 167.05 14.12 C166.78 14.73 166.51 15.34 166.23 15.96 C146.11 61.07 129.5 108.23 117 156 C116.81 156.73 116.62 157.47 116.42 158.22 C108.52 188.47 102.25 218.94 98.19 249.94 C98.04 251.05 98.04 251.05 97.89 252.19 C94.4 278.6 93.61 305.09 93.69 331.69 C93.69 333.15 93.69 334.62 93.7 336.09 C93.74 356.64 94.22 376.95 96.69 397.38 C97.33 402.73 97.93 408.08 98.55 413.43 C99.44 421.17 100.33 428.91 101.23 436.65 C107.59 491.32 112.34 546.16 115.19 601.12 C115.24 602.19 115.24 602.19 115.3 603.28 C115.52 607.64 115.72 611.99 115.89 616.35 C115.97 618.24 116.05 620.12 116.13 622.01 C117.03 643.45 117.19 664.88 117.19 686.35 C117.19 690.1 117.19 693.86 117.21 697.61 C117.36 739.87 115.87 782.23 109.91 824.11 C109.79 824.96 109.67 825.81 109.55 826.68 C109.44 827.4 109.34 828.12 109.23 828.86 C108.98 831.23 109 833.62 109 836 C472.99 836 836.98 836 1212 836 C1212.02 709.3 1212.04 582.6 1212.06 452.06 C1212.07 411.98 1212.08 371.89 1212.09 330.59 C1212.09 294.83 1212.09 294.83 1212.1 259.06 C1212.1 242.01 1212.1 224.96 1212.11 207.91 C1212.11 190.54 1212.11 173.17 1212.11 155.8 C1212.11 145.46 1212.11 135.12 1212.12 124.78 C1212.12 117.97 1212.12 111.15 1212.12 104.34 C1212.12 100.45 1212.12 96.56 1212.12 92.67 C1212.13 88.49 1212.13 84.3 1212.12 80.12 C1212.13 78.27 1212.13 78.27 1212.13 76.39 C1212.13 75.29 1212.13 74.19 1212.12 73.05 C1212.12 72.09 1212.12 71.13 1212.12 70.15 C1212.24 68.02 1212.24 68.02 1211 67 C1209.48 66.89 1207.96 66.85 1206.44 66.84 C1205.45 66.83 1204.46 66.83 1203.43 66.82 C1201.77 66.81 1201.77 66.81 1200.08 66.8 C1198.91 66.79 1197.74 66.78 1196.54 66.77 C1193.26 66.75 1189.99 66.73 1186.71 66.71 C1183.89 66.69 1181.06 66.67 1178.24 66.65 C1169.61 66.59 1160.98 66.54 1152.36 66.49 C1147.29 66.46 1142.23 66.43 1137.16 66.39 C1051.8 65.87 966.44 65.78 881.07 65.7 C865.13 65.69 849.19 65.67 833.25 65.65 C831.52 65.65 831.52 65.65 829.76 65.65 C823.91 65.64 818.06 65.64 812.2 65.63 C771.3 65.58 730.4 65.54 689.5 65.5 C649.89 65.46 610.29 65.42 570.68 65.37 C569.45 65.37 568.22 65.37 566.95 65.37 C554.57 65.35 542.19 65.34 529.81 65.33 C504.62 65.3 479.43 65.27 454.24 65.24 C453.08 65.24 451.93 65.24 450.73 65.24 C374.16 65.16 297.58 65.08 221 65 C221.75 60.25 221.75 60.25 224 58 C226.44 57.75 226.44 57.75 229.58 57.75 C230.77 57.75 231.97 57.74 233.2 57.74 C234.54 57.74 235.88 57.75 237.22 57.75 C238.64 57.75 240.06 57.75 241.48 57.75 C245.41 57.74 249.35 57.75 253.28 57.76 C257.54 57.76 261.81 57.76 266.08 57.75 C273.56 57.75 281.05 57.75 288.54 57.76 C299.67 57.77 310.8 57.77 321.94 57.77 C340.66 57.77 359.38 57.78 378.11 57.79 C396.66 57.8 415.21 57.81 433.75 57.81 C435.48 57.81 435.48 57.81 437.24 57.81 C443.09 57.81 448.94 57.81 454.79 57.81 C496.26 57.82 537.73 57.83 579.19 57.85 C619.48 57.87 659.78 57.88 700.07 57.89 C701.31 57.89 702.55 57.89 703.83 57.89 C716.3 57.89 728.76 57.9 741.23 57.9 C766.62 57.9 792.02 57.91 817.41 57.92 C818.58 57.92 819.75 57.92 820.95 57.92 C898.97 57.93 976.98 57.97 1055 58 C1053.09 54.33 1051.17 50.65 1049.26 46.98 C1048.45 45.43 1048.45 45.43 1047.63 43.85 C1043.64 36.2 1039.6 28.59 1035.5 21 C1034.92 19.92 1034.34 18.84 1033.74 17.73 C1031.41 13.41 1029.08 9.11 1026.59 4.88 C1025 2 1025 2 1025 0 C1109.15 0 1193.3 0 1280 0 C1280 298.32 1280 596.64 1280 904 C857.6 904 435.2 904 0 904 C0 605.68 0 307.36 0 0 Z " fill="#3C4360" transform="translate(0,0)"/>
<path d="M0 0 C170.59 -0.03 170.59 -0.03 307.09 -0.04 C308.62 -0.04 310.15 -0.04 311.68 -0.04 C343.77 -0.05 375.87 -0.05 407.96 -0.05 C424.08 -0.05 440.2 -0.05 456.32 -0.05 C458.75 -0.05 461.18 -0.06 463.62 -0.06 C501.08 -0.06 538.54 -0.06 576 -0.07 C576.8 -0.07 577.61 -0.07 578.44 -0.07 C591.43 -0.07 604.42 -0.07 617.42 -0.08 C654.83 -0.08 692.24 -0.09 729.65 -0.09 C730.8 -0.09 730.8 -0.09 731.98 -0.09 C748.85 -0.09 765.73 -0.09 782.6 -0.09 C789.39 -0.09 796.18 -0.09 802.97 -0.09 C804.08 -0.09 804.08 -0.09 805.22 -0.09 C829.19 -0.1 853.15 -0.1 877.12 -0.11 C901.25 -0.11 925.38 -0.12 949.51 -0.11 C964.49 -0.11 979.47 -0.11 994.46 -0.12 C1004 -0.12 1013.54 -0.12 1023.08 -0.12 C1028.53 -0.12 1033.98 -0.12 1039.43 -0.12 C1044.38 -0.13 1049.32 -0.13 1054.27 -0.12 C1056.06 -0.12 1057.85 -0.12 1059.64 -0.13 C1062.05 -0.13 1064.46 -0.13 1066.87 -0.12 C1067.57 -0.13 1068.27 -0.13 1069 -0.13 C1073.77 -0.11 1073.77 -0.11 1076 1 C1073.62 7.26 1070.35 13.05 1067.19 18.94 C1066.86 19.55 1066.53 20.17 1066.19 20.8 C1061.02 30.46 1055.62 39.96 1049.95 49.33 C1049.44 50.17 1048.94 51.01 1048.41 51.88 C1047.97 52.61 1047.53 53.33 1047.07 54.08 C1045.86 56.11 1045.86 56.11 1045 59 C957.75 59.23 870.5 59.46 755.37 59.64 C753.92 59.64 752.48 59.64 751.04 59.64 C720.76 59.69 690.48 59.73 660.19 59.76 C644.98 59.78 629.77 59.8 614.56 59.82 C612.27 59.82 609.97 59.83 607.68 59.83 C572.34 59.88 537.01 59.93 501.67 60.03 C500.91 60.03 500.15 60.03 499.37 60.04 C487.12 60.07 474.87 60.1 462.61 60.14 C427.33 60.24 392.05 60.33 356.76 60.37 C355.68 60.37 355.68 60.37 354.57 60.37 C338.64 60.39 322.71 60.4 306.79 60.41 C300.38 60.41 293.97 60.42 287.57 60.42 C286.51 60.42 286.51 60.42 285.44 60.42 C262.84 60.44 240.24 60.51 217.64 60.59 C194.24 60.69 170.84 60.73 147.45 60.7 C133.95 60.69 120.45 60.72 106.96 60.81 C97.95 60.87 88.95 60.87 79.94 60.83 C74.8 60.8 69.66 60.81 64.53 60.87 C59.85 60.93 55.18 60.93 50.51 60.86 C48.83 60.85 47.15 60.87 45.47 60.91 C40.27 61.03 35.89 60.9 31 59 C27.18 55.36 24.98 50.66 22.87 45.89 C21.55 43.01 19.95 40.33 18.34 37.59 C17.2 35.56 16.07 33.53 14.94 31.5 C14.34 30.43 13.74 29.36 13.13 28.26 C11.95 26.14 10.78 24.02 9.61 21.9 C8.61 20.09 7.6 18.28 6.59 16.47 C5.43 14.38 4.27 12.29 3.12 10.19 C2.51 9.07 1.89 7.95 1.26 6.79 C0 4 0 4 0 0 Z " fill="#FCFDFF" transform="translate(107,845)"/>
<path d="M0 0 C254.43 0 508.86 0 771 0 C789.89 35.56 789.89 35.56 796.12 47.48 C797.27 49.64 798.48 51.78 799.76 53.86 C801 56 801 56 801 58 C527.1 58 253.2 58 -29 58 C-28.08 53.42 -26.95 50.59 -24.82 46.5 C-24.5 45.88 -24.17 45.25 -23.84 44.6 C-23.14 43.26 -22.45 41.92 -21.75 40.59 C-20.72 38.63 -19.71 36.67 -18.69 34.71 C-12.63 23.04 -6.3 11.55 0 0 Z " fill="#FCFDFF" transform="translate(254,0)"/>
<path d="M0 0 C46.2 0 92.4 0 140 0 C140.16 67.04 140.16 67.04 140.21 87.79 C140.21 88.9 140.21 88.9 140.21 90.03 C140.26 114.96 140.31 139.9 140.34 164.83 C140.34 165.64 140.34 166.46 140.34 167.29 C140.37 184.99 140.39 202.69 140.41 220.39 C140.42 229.07 140.43 237.75 140.44 246.43 C140.44 247.29 140.44 248.16 140.44 249.05 C140.48 277 140.54 304.96 140.61 332.92 C140.69 361.66 140.74 390.41 140.75 419.16 C140.75 423.23 140.76 427.29 140.76 431.36 C140.76 432.16 140.76 432.96 140.76 433.79 C140.77 446.63 140.81 459.48 140.85 472.32 C140.9 485.26 140.92 498.2 140.91 511.14 C140.9 518.81 140.92 526.48 140.97 534.15 C141 539.91 140.99 545.66 140.97 551.42 C140.96 553.73 140.97 556.04 141 558.34 C141.16 574.28 138.37 587.47 132.9 602.43 C130.94 608.04 129.7 613.84 128.38 619.62 C116.7 668.39 100.49 716.42 82 763 C80.18 759.88 79.75 757.62 79.75 754.02 C79.75 752.5 79.75 752.5 79.74 750.95 C79.75 749.84 79.75 748.72 79.76 747.58 C79.75 746.39 79.75 745.21 79.75 743.98 C79.75 740.68 79.75 737.37 79.76 734.06 C79.77 730.47 79.77 726.87 79.76 723.28 C79.76 716.98 79.77 710.68 79.78 704.37 C79.79 695 79.79 685.63 79.79 676.26 C79.79 660.5 79.8 644.73 79.82 628.97 C79.83 613.36 79.84 597.74 79.85 582.13 C79.85 581.16 79.85 580.19 79.85 579.19 C79.85 574.27 79.85 569.34 79.85 564.41 C79.86 529.5 79.88 494.59 79.9 459.68 C79.91 457.57 79.91 455.46 79.91 453.34 C79.91 451.78 79.91 451.78 79.91 450.17 C79.91 444.88 79.92 439.58 79.92 434.29 C79.92 433.24 79.92 432.19 79.92 431.11 C79.94 406.72 79.95 382.32 79.97 357.93 C79.97 356.88 79.97 355.84 79.97 354.76 C79.98 330.92 79.99 307.07 80 283.23 C80 282.23 80 281.23 80 280.19 C80 271.19 80.01 262.18 80.01 253.18 C80.02 230.69 80.03 208.2 80.05 185.72 C80.06 170.05 80.07 154.38 80.07 138.72 C80.08 129.4 80.08 120.08 80.1 110.76 C80.1 104.54 80.1 98.33 80.11 92.11 C80.11 88.57 80.11 85.02 80.11 81.47 C80.12 77.66 80.12 73.85 80.12 70.04 C80.12 68.92 80.12 67.81 80.13 66.65 C80.13 65.65 80.12 64.64 80.12 63.61 C80.12 62.74 80.12 61.86 80.12 60.96 C80.22 59 80.22 59 79 58 C77.24 57.9 75.47 57.87 73.7 57.87 C72 57.87 72 57.87 70.27 57.86 C69.04 57.86 67.81 57.86 66.54 57.86 C63.96 57.84 61.38 57.82 58.8 57.8 C54.71 57.77 50.62 57.75 46.52 57.75 C42.59 57.75 38.66 57.71 34.73 57.67 C32.88 57.68 32.88 57.68 31 57.69 C29.87 57.68 28.73 57.66 27.56 57.64 C26.05 57.64 26.05 57.64 24.52 57.63 C22 57 22 57 20.23 54.65 C18.86 51.69 17.68 48.73 16.58 45.65 C16.14 44.42 15.69 43.18 15.23 41.91 C15 41.26 14.77 40.61 14.53 39.94 C13.32 36.56 12.1 33.19 10.88 29.82 C10.63 29.16 10.39 28.49 10.14 27.8 C7.68 21.06 5.03 14.4 2.29 7.77 C0 2.19 0 2.19 0 0 Z " fill="#FAC950" transform="translate(1140,0)"/>
<path d="M0 0 C18.81 0 37.62 0 57 0 C53.64 10.08 53.64 10.08 51.76 14.92 C21.97 92.15 -0.87 172.12 -9 320 C-8.98 321.18 -8.95 322.37 -8.93 323.59 C-8.84 327.35 -8.74 331.11 -8.62 334.88 C-8.59 335.96 -8.56 337.04 -8.53 338.16 C-7.74 360.85 -5.76 383.38 -2.75 405.88 C-2.59 407.11 -2.42 408.35 -2.26 409.63 C1.86 440.77 6.97 471.77 12.06 502.77 C16.4 529.25 16.4 529.25 17.92 539.69 C18.04 540.48 18.15 541.28 18.27 542.1 C18.84 546.09 19.11 549.96 19 554 C19.66 554 20.32 554 21 554 C20.67 556.97 20.34 559.94 20 563 C20.66 563 21.32 563 22 563 C22.17 565.4 22.34 567.79 22.5 570.19 C22.57 571.2 22.57 571.2 22.64 572.23 C22.84 575.14 23 578.01 22.97 580.93 C22.76 582.99 22.76 582.99 24 584 C24.37 587.02 24.67 590.03 24.94 593.06 C25.02 594 25.11 594.94 25.2 595.91 C25.38 597.91 25.55 599.92 25.73 601.93 C25.99 604.9 26.26 607.88 26.54 610.86 C28.83 636.24 29.21 661.6 29.19 687.06 C29.19 687.81 29.19 688.55 29.19 689.32 C29.18 713.59 28.83 737.78 27 762 C26.95 762.72 26.89 763.44 26.84 764.18 C25.23 785.78 23.41 807.76 19 829 C10.01 819.34 9.28 808.62 9.36 796.15 C9.36 794.5 9.35 792.86 9.33 791.22 C9.31 787.74 9.31 784.26 9.31 780.78 C9.32 775.32 9.29 769.87 9.25 764.41 C9.24 763.5 9.23 762.6 9.23 761.67 C9.21 759.84 9.2 758.02 9.18 756.2 C9.16 753.49 9.15 750.77 9.13 748.05 C8.56 659.29 -2.99 572.86 -22.25 486.35 C-40.92 402.4 -57.96 317.37 -35 101 C-34.72 99.91 -34.43 98.83 -34.14 97.71 C-25.3 64.27 -13.34 31.87 0 0 Z " fill="#292B41" transform="translate(80,0)"/>
<path d="M0 0 C27.06 0 54.12 0 82 0 C80.56 4.31 79.29 7.58 77.16 11.46 C76.6 12.5 76.04 13.54 75.45 14.61 C74.55 16.26 74.55 16.26 73.62 17.94 C72.36 20.26 71.09 22.59 69.83 24.92 C69.51 25.51 69.19 26.1 68.86 26.71 C65.12 33.6 61.51 40.56 57.91 47.53 C55.91 51.39 53.9 55.23 51.71 58.99 C50.31 61.45 49.44 63.24 49 66 C48.34 66 47.68 66 47 66 C46.61 67.27 46.61 67.27 46.22 68.56 C44.92 72.21 43.31 75.6 41.54 79.04 C40.84 80.42 40.14 81.81 39.44 83.19 C39.07 83.91 38.71 84.64 38.33 85.38 C30.73 100.33 23.51 115.41 16.54 130.66 C15.03 133.94 13.49 137.22 11.94 140.48 C-9.52 185.94 -28.07 232.69 -45 280 C-45.27 280.76 -45.55 281.53 -45.83 282.31 C-57.2 314.14 -66.79 346.49 -76 379 C-76.66 379 -77.32 379 -78 379 C-78.79 369.52 -79.17 360.12 -79.2 350.6 C-79.21 349.25 -79.22 347.9 -79.22 346.55 C-79.24 342.24 -79.25 337.93 -79.25 333.62 C-79.25 332.89 -79.25 332.15 -79.25 331.4 C-79.26 295.51 -77.11 260.39 -71 225 C-70.88 224.31 -70.76 223.62 -70.64 222.91 C-63.79 182.92 -53.59 143.58 -40.71 105.13 C-40.02 103.05 -39.33 100.97 -38.65 98.88 C-28.44 67.81 -16.22 37.48 -3.09 7.53 C-2.02 5.04 -1.01 2.52 0 0 Z " fill="#FACA50" transform="translate(172,0)"/>
<path d="M0 0 C0.33 0 0.66 0 1 0 C1 106.92 1 213.84 1 324 C-41.24 324 -83.48 324 -127 324 C-126.01 319.03 -124.29 315.78 -121.69 311.56 C-117.57 304.74 -113.67 297.82 -109.88 290.81 C-105.36 282.47 -100.76 274.2 -96 266 C-96.66 265.67 -97.32 265.34 -98 265 C-97.42 265.16 -96.84 265.33 -96.23 265.49 C-92.76 266.28 -89.27 266.12 -85.73 266.1 C-84.54 266.1 -84.54 266.1 -83.33 266.09 C-80.8 266.09 -78.28 266.08 -75.75 266.06 C-74.03 266.06 -72.32 266.05 -70.6 266.05 C-66.4 266.04 -62.2 266.02 -58 266 C-57.98 255.46 -57.96 244.91 -57.95 234.37 C-57.94 229.47 -57.94 224.58 -57.92 219.68 C-57.91 214.96 -57.91 210.24 -57.91 205.52 C-57.9 203.72 -57.9 201.91 -57.89 200.11 C-57.89 197.59 -57.89 195.07 -57.89 192.55 C-57.88 191.42 -57.88 191.42 -57.88 190.26 C-57.57 186.84 -57.57 186.84 -59 184 C-59.04 182.33 -59.04 180.67 -59 179 C-58.34 179.33 -57.68 179.66 -57 180 C-37.64 131.39 -22.04 81.45 -9.28 30.71 C-6.65 20.33 -3.39 10.16 0 0 Z " fill="#292B41" transform="translate(1279,580)"/>
<path d="M0 0 C2.34 3.51 3.15 6.93 4.14 10.97 C4.57 12.65 5 14.33 5.42 16.01 C5.76 17.35 5.76 17.35 6.11 18.71 C21.65 80.07 41.09 141.52 68.43 198.71 C70.18 202.37 71.9 206.05 73.61 209.73 C73.92 210.39 74.23 211.06 74.54 211.74 C75.16 213.07 75.78 214.4 76.4 215.74 C78.37 219.96 80.34 224.18 82.32 228.39 C83.5 230.93 84.68 233.47 85.86 236 C86.17 236.67 86.48 237.34 86.8 238.03 C87.66 239.88 88.52 241.74 89.39 243.6 C92.82 251.01 92.82 251.01 97 258 C97.99 258.33 98.98 258.66 100 259 C100.99 255.04 100.99 255.04 102 251 C102.66 251 103.32 251 104 251 C104.47 251.96 104.95 252.92 105.43 253.9 C109.46 262.02 113.58 270.07 117.85 278.06 C120.32 282.67 122.66 287.32 125 292 C83.75 292 42.5 292 0 292 C0 195.64 0 99.28 0 0 Z " fill="#D3AD60" transform="translate(0,612)"/>
<path d="M0 0 C7.92 0 15.84 0 24 0 C20.64 10.08 20.64 10.08 18.57 14.7 C18.11 15.75 17.66 16.79 17.18 17.86 C16.69 18.98 16.2 20.1 15.69 21.25 C-2.77 63.83 -18.19 108.12 -30 153 C-30.19 153.72 -30.38 154.45 -30.58 155.19 C-40.6 193.21 -47.69 231.78 -51.78 270.88 C-51.98 272.81 -52.19 274.74 -52.4 276.67 C-56.04 311.7 -55.98 348.61 -51.55 383.55 C-50.87 388.95 -50.28 394.37 -49.68 399.79 C-49.56 400.87 -49.44 401.94 -49.32 403.04 C-49.07 405.29 -48.82 407.54 -48.57 409.79 C-48.19 413.27 -47.8 416.76 -47.41 420.24 C-43.19 457.93 -39.37 495.65 -36.12 533.44 C-36.02 534.7 -35.91 535.96 -35.79 537.26 C-35.48 540.84 -35.18 544.42 -34.88 548 C-34.79 549.04 -34.7 550.08 -34.61 551.15 C-34.04 558.11 -33.9 565.02 -34 572 C-34.33 572 -34.66 572 -35 572 C-35 569.03 -35 566.06 -35 563 C-35.66 563 -36.32 563 -37 563 C-37.12 556.25 -37.12 556.25 -36 554 C-36.66 554 -37.32 554 -38 554 C-38.12 553.21 -38.24 552.41 -38.37 551.59 C-39.8 542.28 -41.24 532.97 -42.68 523.66 C-43.06 521.19 -43.44 518.72 -43.83 516.24 C-46.55 498.57 -49.31 480.91 -52.28 463.28 C-55.22 445.78 -57.71 428.21 -60.05 410.62 C-60.31 408.68 -60.57 406.73 -60.83 404.79 C-63.96 381.57 -65.96 358.3 -66.62 334.88 C-66.66 333.64 -66.7 332.4 -66.74 331.13 C-66.84 327.42 -66.92 323.71 -67 320 C-67.04 318.35 -67.04 318.35 -67.07 316.67 C-68.59 232.16 -52.14 148.59 0 0 Z " fill="#D3AD5F" transform="translate(137,0)"/>
<path d="M0 0 C1.84 2.77 2.59 4.57 3.48 7.71 C3.75 8.67 4.03 9.63 4.31 10.62 C4.6 11.68 4.89 12.73 5.19 13.81 C5.65 15.47 5.65 15.47 6.11 17.17 C27.67 96.31 32.89 177.19 1 379 C0.01 378.67 -0.98 378.34 -2 378 C-2 253.59 -2 129.18 -2 1 C-1.34 0.67 -0.68 0.34 0 0 Z " fill="#D3AD5F" transform="translate(1222,72)"/>
<path d="M0 0 C11.88 0 23.76 0 36 0 C34.34 4.99 32.41 9.07 29.81 13.56 C-12.44 88.32 -44.37 169.75 -72.48 278.89 C-73.25 282 -74.03 285.11 -74.8 288.22 C-75.04 289.16 -75.27 290.1 -75.52 291.06 C-75.68 291.7 -75.84 292.34 -76 293 C-76.33 293 -76.66 293 -77 293 C-78.13 284.56 -77.81 276.64 -76.94 268.19 C-76.84 267.2 -76.84 267.2 -76.74 266.19 C-71.13 211.29 -57.92 157.42 -40.68 105.07 C-40.01 103.04 -39.35 101.01 -38.69 98.98 C-28.47 67.87 -16.23 37.51 -3.09 7.53 C-2.02 5.04 -1.01 2.52 0 0 Z " fill="#D3AD60" transform="translate(172,0)"/>
<path d="M0 0 C0.33 0 0.66 0 1 0 C1 71.28 1 142.56 1 216 C-16.16 216 -33.32 216 -51 216 C-44.5 193.24 -44.5 193.24 -42.14 185.84 C-24.72 131.22 -13.52 74.5 -3.83 18.07 C-3.65 17.02 -3.46 15.96 -3.28 14.86 C-2.93 12.87 -2.59 10.87 -2.26 8.88 C-2.1 8 -1.95 7.12 -1.8 6.21 C-1.6 5.06 -1.6 5.06 -1.4 3.88 C-1 2 -1 2 0 0 Z " fill="#3C4360" transform="translate(1279,688)"/>
<path d="M0 0 C2.43 2.43 2.53 3.73 3.17 7.07 C3.38 8.14 3.59 9.2 3.8 10.3 C4.02 11.47 4.24 12.64 4.47 13.84 C4.96 16.36 5.45 18.87 5.93 21.38 C6.19 22.72 6.45 24.05 6.71 25.39 C8.03 32.29 9.4 39.17 10.77 46.05 C10.91 46.74 11.04 47.43 11.18 48.14 C14.93 66.89 19.29 85.47 24 104 C24.2 104.77 24.39 105.55 24.6 106.35 C28.64 122.27 32.74 138.18 37.97 153.76 C38.37 155.01 38.37 155.01 38.79 156.29 C39.02 156.99 39.26 157.69 39.5 158.41 C40.23 162.2 40 166.13 40 170 C26.8 170 13.6 170 0 170 C0 113.9 0 57.8 0 0 Z " fill="#FAC950" transform="translate(0,734)"/>
<path d="M0 0 C18.81 0 37.62 0 57 0 C68.55 28.88 68.55 28.88 72.56 40.31 C72.99 41.5 73.41 42.69 73.85 43.92 C76.96 52.7 76.96 52.7 78 57 C70.75 57.12 63.5 57.2 56.25 57.26 C52.88 57.29 49.52 57.32 46.15 57.38 C42.28 57.44 38.41 57.47 34.54 57.49 C33.33 57.51 32.12 57.54 30.88 57.57 C29.76 57.57 28.64 57.57 27.48 57.57 C26.49 57.58 25.5 57.59 24.49 57.6 C22 57 22 57 20.23 54.65 C18.86 51.69 17.68 48.73 16.58 45.65 C16.14 44.42 15.69 43.18 15.23 41.91 C15 41.26 14.77 40.61 14.53 39.94 C13.32 36.56 12.1 33.19 10.88 29.82 C10.63 29.16 10.39 28.49 10.14 27.8 C7.68 21.06 5.03 14.4 2.29 7.77 C0 2.19 0 2.19 0 0 Z " fill="#D3AD60" transform="translate(1140,0)"/>
<path d="M0 0 C1.35 0 1.35 0 2.72 0 C3.74 0 4.76 -0 5.81 -0.01 C7.46 0.01 7.46 0.01 9.15 0.02 C10.27 0.02 11.4 0.02 12.56 0.02 C14.95 0.02 17.33 0.03 19.72 0.04 C23.38 0.06 27.05 0.06 30.71 0.06 C33.02 0.07 35.33 0.07 37.65 0.08 C38.75 0.08 39.85 0.08 40.99 0.08 C42.51 0.09 42.51 0.09 44.07 0.1 C44.96 0.11 45.86 0.11 46.79 0.11 C48.83 0.25 48.83 0.25 49.83 1.25 C49.99 3.91 50.09 6.55 50.15 9.22 C50.17 10.02 50.19 10.82 50.21 11.64 C50.28 14.19 50.33 16.75 50.39 19.31 C50.44 21.04 50.48 22.77 50.52 24.5 C50.63 28.75 50.73 33 50.83 37.25 C51.92 37.27 53 37.3 54.12 37.32 C58.13 37.42 62.14 37.52 66.16 37.62 C67.9 37.66 69.63 37.7 71.37 37.74 C73.87 37.8 76.36 37.87 78.86 37.93 C79.64 37.95 80.42 37.96 81.23 37.98 C86.72 38.13 86.72 38.13 87.83 39.25 C87.92 40.94 87.95 42.63 87.94 44.32 C87.94 45.94 87.94 45.94 87.94 47.59 C87.94 48.77 87.93 49.95 87.93 51.16 C87.93 52.35 87.92 53.55 87.92 54.79 C87.92 58.63 87.91 62.47 87.89 66.31 C87.89 68.91 87.88 71.5 87.88 74.1 C87.87 80.48 87.85 86.87 87.83 93.25 C80.96 91.37 80.96 91.37 79.83 90.25 C79.71 88.87 79.65 87.48 79.62 86.09 C79.59 84.77 79.59 84.77 79.56 83.43 C79.55 82.47 79.53 81.51 79.51 80.52 C79.49 79.55 79.47 78.57 79.45 77.57 C79.39 74.44 79.33 71.31 79.27 68.18 C79.22 66.07 79.18 63.95 79.14 61.84 C79.03 56.64 78.93 51.44 78.83 46.25 C74.38 46.74 74.38 46.74 69.83 47.25 C69.5 53.19 69.17 59.13 68.83 65.25 C64.52 65.27 60.21 65.29 55.89 65.31 C54.66 65.32 53.43 65.33 52.16 65.34 C50.99 65.34 49.82 65.34 48.62 65.34 C46.99 65.35 46.99 65.35 45.33 65.36 C42.83 65.25 42.83 65.25 41.83 64.25 C41.59 61.39 41.41 58.55 41.27 55.68 C41.2 54.48 41.2 54.48 41.14 53.24 C41.03 51.24 40.93 49.25 40.83 47.25 C39.61 47.19 38.4 47.13 37.15 47.06 C35.56 46.98 33.98 46.89 32.39 46.81 C31.59 46.77 30.79 46.73 29.96 46.69 C23.94 46.36 23.94 46.36 22.83 45.25 C22.58 41.27 22.64 37.29 22.64 33.31 C22.63 32.19 22.62 31.06 22.61 29.91 C22.6 28.83 22.6 27.76 22.6 26.66 C22.6 25.67 22.59 24.68 22.59 23.66 C22.83 21.25 22.83 21.25 24.83 19.25 C27.74 19.1 30.55 19.06 33.46 19.12 C34.26 19.13 35.06 19.14 35.88 19.15 C37.87 19.17 39.85 19.21 41.83 19.25 C41.34 14.79 41.34 14.79 40.83 10.25 C39.57 10.23 38.31 10.21 37.01 10.19 C32.34 10.11 27.67 10.02 23 9.93 C20.97 9.89 18.95 9.86 16.93 9.83 C14.02 9.78 11.12 9.72 8.21 9.66 C7.3 9.65 6.4 9.64 5.46 9.63 C4.62 9.61 3.78 9.59 2.91 9.57 C1.8 9.55 1.8 9.55 0.67 9.53 C-1.17 9.25 -1.17 9.25 -3.17 7.25 C-3.92 4.75 -3.92 4.75 -4.17 2.25 C-2.17 0.25 -2.17 0.25 0 0 Z " fill="#3C4360" transform="translate(1095.169937133789,88.75276184082031)"/>
<path d="M0 0 C0 17.49 0 34.98 0 53 C-17.94 53.44 -17.94 53.44 -23.61 53.57 C-25.08 53.61 -26.55 53.64 -28.03 53.68 C-29.19 53.71 -29.19 53.71 -30.37 53.73 C-33.98 53.5 -33.98 53.5 -37 55 C-37.16 57.66 -37.26 60.31 -37.32 62.97 C-37.34 63.77 -37.36 64.57 -37.38 65.39 C-37.44 67.95 -37.5 70.5 -37.56 73.06 C-37.61 74.79 -37.65 76.52 -37.69 78.25 C-37.8 82.5 -37.9 86.75 -38 91 C-45.39 91.03 -52.77 91.04 -60.16 91.05 C-62.68 91.06 -65.19 91.07 -67.71 91.08 C-71.31 91.09 -74.92 91.09 -78.53 91.1 C-80.23 91.11 -80.23 91.11 -81.96 91.11 C-83 91.11 -84.04 91.11 -85.11 91.11 C-86.03 91.12 -86.96 91.12 -87.91 91.12 C-90 91 -90 91 -91 90 C-91.12 87 -91.12 87 -91 84 C-90 83 -90 83 -88.21 82.88 C-87.43 82.88 -86.65 82.88 -85.85 82.89 C-84.53 82.89 -84.53 82.89 -83.18 82.89 C-82.22 82.89 -81.26 82.9 -80.28 82.9 C-78.81 82.9 -78.81 82.9 -77.32 82.91 C-74.19 82.91 -71.07 82.92 -67.94 82.94 C-65.82 82.94 -63.71 82.95 -61.59 82.95 C-56.39 82.96 -51.2 82.98 -46 83 C-46.33 79.7 -46.66 76.4 -47 73 C-48.7 72.93 -48.7 72.93 -50.43 72.85 C-51.91 72.78 -53.39 72.7 -54.88 72.62 C-55.62 72.59 -56.37 72.56 -57.14 72.53 C-62.77 72.23 -62.77 72.23 -65 70 C-65.24 67.69 -65.24 67.69 -65.23 64.84 C-65.23 63.82 -65.23 62.8 -65.22 61.75 C-65.21 60.14 -65.21 60.14 -65.19 58.5 C-65.19 57.43 -65.19 56.36 -65.19 55.25 C-65.14 47.28 -65.14 47.28 -64 45 C-58.06 45 -52.12 45 -46 45 C-46.04 39.5 -46.04 39.5 -46.09 33.99 C-46.11 28.22 -46.11 28.22 -45 26 C-40.85 25.97 -36.71 25.95 -32.56 25.94 C-31.38 25.93 -30.19 25.92 -28.97 25.91 C-27.85 25.91 -26.73 25.91 -25.57 25.9 C-24.52 25.9 -23.48 25.89 -22.41 25.89 C-20 26 -20 26 -19 27 C-18.73 30.42 -18.55 33.84 -18.39 37.27 C-18.54 40.94 -18.54 40.94 -17 44 C-15.49 44.23 -13.96 44.41 -12.44 44.56 C-11.61 44.65 -10.78 44.73 -9.93 44.82 C-9.3 44.88 -8.66 44.94 -8 45 C-8.01 43.71 -8.01 42.42 -8.02 41.08 C-8.03 36.3 -8.05 31.52 -8.05 26.74 C-8.06 24.67 -8.07 22.59 -8.08 20.52 C-8.09 17.55 -8.09 14.58 -8.1 11.6 C-8.1 10.67 -8.11 9.74 -8.11 8.78 C-8.11 7.92 -8.11 7.06 -8.11 6.17 C-8.12 5.41 -8.12 4.66 -8.12 3.87 C-8 2 -8 2 -7 0 C-4.03 -1.09 -3.12 -1.04 0 0 Z " fill="#3C4360" transform="translate(1183,723)"/>
<path d="M0 0 C10.89 0 21.78 0 33 0 C50.76 39.28 50.76 39.28 57 58 C47.76 58 38.52 58 29 58 C27.27 54.49 25.54 50.99 23.75 47.38 C17.37 34.56 10.71 21.87 3.54 9.48 C2.85 8.28 2.85 8.28 2.15 7.06 C1.53 5.99 1.53 5.99 0.9 4.91 C0 3 0 3 0 0 Z " fill="#292B41" transform="translate(1072,0)"/>
<path d="M0 0 C1.86 -0.01 1.86 -0.01 3.75 -0.01 C5.13 -0.01 6.5 -0.01 7.88 -0.01 C9.33 -0.01 10.77 -0.02 12.22 -0.02 C16.15 -0.03 20.08 -0.03 24.01 -0.03 C27.29 -0.03 30.57 -0.04 33.85 -0.04 C41.58 -0.05 49.31 -0.05 57.04 -0.05 C65.02 -0.05 73.01 -0.06 80.99 -0.08 C87.84 -0.09 94.69 -0.1 101.54 -0.1 C105.63 -0.09 109.72 -0.1 113.82 -0.11 C117.67 -0.12 121.51 -0.12 125.36 -0.11 C126.78 -0.11 128.19 -0.11 129.61 -0.12 C131.53 -0.13 133.46 -0.12 135.38 -0.11 C137 -0.11 137 -0.11 138.66 -0.12 C141.19 0.13 141.19 0.13 143.19 2.13 C143.59 4.46 143.93 6.79 144.19 9.13 C124.52 9.16 104.85 9.17 85.18 9.19 C76.05 9.19 66.91 9.2 57.78 9.21 C49.82 9.22 41.87 9.23 33.91 9.23 C29.69 9.23 25.48 9.23 21.26 9.24 C17.3 9.25 13.34 9.25 9.37 9.25 C7.91 9.25 6.45 9.25 5 9.25 C3.01 9.26 1.03 9.26 -0.95 9.25 C-2.07 9.25 -3.18 9.26 -4.33 9.26 C-6.81 9.13 -6.81 9.13 -7.81 8.13 C-7.85 5.8 -7.85 3.47 -7.81 1.13 C-5.11 -0.21 -3.02 0 0 0 Z " fill="#3C4360" transform="translate(939.8077392578125,88.86628723144531)"/>
<path d="M0 0 C3.62 -0.03 7.25 -0.05 10.88 -0.06 C12.42 -0.08 12.42 -0.08 14 -0.09 C14.99 -0.09 15.98 -0.09 16.99 -0.1 C18.36 -0.11 18.36 -0.11 19.75 -0.11 C22 0 22 0 24 1 C21.62 7.26 18.35 13.05 15.19 18.94 C14.69 19.86 14.69 19.86 14.19 20.8 C9.02 30.46 3.62 39.96 -2.05 49.33 C-2.56 50.17 -3.06 51.01 -3.59 51.88 C-4.03 52.61 -4.47 53.33 -4.93 54.08 C-6.14 56.11 -6.14 56.11 -7 59 C-14.92 59 -22.84 59 -31 59 C-27.77 52.95 -24.43 46.99 -20.88 41.12 C-16.57 34.02 -12.43 26.82 -8.34 19.58 C-4.98 13.67 -1.52 7.82 2 2 C1.34 1.34 0.68 0.68 0 0 Z " fill="#FAC94F" transform="translate(1159,845)"/>
<path d="M0 0 C7.59 0 15.18 0 23 0 C28.87 14.06 34.55 28.15 39.69 42.5 C40.12 43.7 40.55 44.91 41 46.15 C41.4 47.26 41.79 48.38 42.2 49.53 C42.55 50.52 42.9 51.5 43.26 52.52 C44 55 44 55 44 58 C40.75 58.17 37.5 58.28 34.25 58.38 C33.33 58.43 32.41 58.48 31.46 58.53 C24.71 58.67 24.71 58.67 21.68 55.79 C20.85 54.13 20.85 54.13 20 52 C19.42 50.62 19.42 50.62 18.82 49.22 C17.43 45.81 16.12 42.38 14.81 38.94 C13.85 36.43 12.88 33.92 11.91 31.41 C11.66 30.78 11.42 30.15 11.17 29.51 C8.52 22.69 5.62 15.99 2.64 9.31 C2.29 8.52 1.94 7.72 1.58 6.9 C1.27 6.22 0.97 5.53 0.65 4.82 C0 3 0 3 0 0 Z " fill="#292B41" transform="translate(1117,0)"/>
<path d="M0 0 C19.54 -0.02 39.08 -0.04 58.62 -0.05 C67.69 -0.06 76.77 -0.06 85.84 -0.08 C93.74 -0.09 101.65 -0.09 109.55 -0.09 C113.74 -0.1 117.93 -0.1 122.11 -0.11 C126.05 -0.11 129.99 -0.11 133.93 -0.11 C135.38 -0.11 136.83 -0.12 138.27 -0.12 C140.24 -0.12 142.21 -0.12 144.19 -0.12 C145.84 -0.12 145.84 -0.12 147.53 -0.12 C150 0 150 0 151 1 C151.12 4 151.12 4 151 7 C149.22 8.78 146.63 8.13 144.23 8.13 C142.35 8.13 142.35 8.13 140.43 8.14 C139.03 8.13 137.63 8.13 136.22 8.13 C134.76 8.13 133.29 8.13 131.83 8.13 C127.83 8.14 123.84 8.14 119.84 8.13 C115.67 8.13 111.5 8.13 107.33 8.14 C100.33 8.14 93.32 8.14 86.32 8.13 C78.21 8.12 70.1 8.13 61.99 8.13 C55.04 8.14 48.09 8.14 41.14 8.13 C36.98 8.13 32.83 8.13 28.67 8.14 C24.76 8.14 20.86 8.14 16.95 8.13 C15.51 8.13 14.07 8.13 12.63 8.13 C10.68 8.14 8.72 8.13 6.77 8.13 C5.13 8.13 5.13 8.13 3.45 8.13 C1 8 1 8 0 7 C-0.04 4.67 -0.04 2.33 0 0 Z " fill="#3C4360" transform="translate(932,806)"/>
<path d="M0 0 C2 -0.04 4 -0.04 6 0 C7.78 1.78 7.13 4.37 7.13 6.77 C7.13 8.02 7.13 9.28 7.14 10.57 C7.13 11.97 7.13 13.37 7.13 14.78 C7.13 16.24 7.13 17.71 7.13 19.17 C7.14 23.17 7.14 27.16 7.13 31.16 C7.13 35.33 7.13 39.5 7.14 43.67 C7.14 50.67 7.14 57.68 7.13 64.68 C7.12 72.79 7.13 80.9 7.13 89.01 C7.14 95.96 7.14 102.91 7.13 109.86 C7.13 114.02 7.13 118.17 7.14 122.33 C7.14 126.24 7.14 130.14 7.13 134.05 C7.13 135.49 7.13 136.93 7.13 138.37 C7.14 140.32 7.13 142.28 7.13 144.23 C7.13 145.33 7.13 146.42 7.13 147.55 C7 150 7 150 6 151 C3 151.12 3 151.12 0 151 C-1.77 149.23 -1.13 146.67 -1.13 144.27 C-1.13 143.03 -1.13 141.79 -1.14 140.51 C-1.13 139.11 -1.13 137.72 -1.13 136.33 C-1.13 134.88 -1.13 133.42 -1.13 131.97 C-1.14 128 -1.14 124.04 -1.13 120.08 C-1.13 115.94 -1.13 111.8 -1.14 107.66 C-1.14 100.71 -1.14 93.76 -1.13 86.8 C-1.12 78.75 -1.13 70.71 -1.13 62.66 C-1.14 55.76 -1.14 48.86 -1.13 41.96 C-1.13 37.84 -1.13 33.71 -1.14 29.59 C-1.14 25.71 -1.14 21.83 -1.13 17.96 C-1.13 16.53 -1.13 15.1 -1.13 13.68 C-1.14 11.74 -1.13 9.79 -1.13 7.85 C-1.13 6.76 -1.13 5.68 -1.13 4.55 C-1 2 -1 2 0 0 Z " fill="#3C4360" transform="translate(1176,563)"/>
<path d="M0 0 C3 0.12 3 0.12 4 1.12 C4.1 3.06 4.12 5 4.12 6.94 C4.12 8.2 4.12 9.47 4.12 10.77 C4.12 12.18 4.12 13.59 4.11 15.01 C4.11 16.49 4.11 17.96 4.11 19.44 C4.11 23.47 4.11 27.49 4.1 31.52 C4.1 35.72 4.09 39.92 4.09 44.12 C4.09 52.08 4.08 60.04 4.07 68 C4.06 77.07 4.06 86.13 4.05 95.19 C4.04 113.83 4.02 132.48 4 151.12 C1.12 151.25 1.12 151.25 -2 151.12 C-4 149.12 -4 149.12 -4.25 146.57 C-4.25 145.48 -4.25 144.39 -4.25 143.27 C-4.25 142.03 -4.26 140.78 -4.26 139.49 C-4.25 138.11 -4.25 136.72 -4.24 135.33 C-4.24 133.87 -4.25 132.41 -4.25 130.96 C-4.25 126.99 -4.25 123.03 -4.24 119.07 C-4.23 114.93 -4.23 110.79 -4.23 106.65 C-4.23 99.7 -4.22 92.75 -4.21 85.8 C-4.19 77.75 -4.18 69.7 -4.19 61.65 C-4.19 53.92 -4.18 46.19 -4.17 38.46 C-4.17 35.17 -4.17 31.87 -4.17 28.58 C-4.17 24.7 -4.16 20.83 -4.15 16.95 C-4.15 15.52 -4.15 14.1 -4.15 12.67 C-4.15 10.73 -4.14 8.79 -4.13 6.85 C-4.13 5.76 -4.13 4.67 -4.13 3.55 C-3.94 -0.05 -3.67 0.15 0 0 Z " fill="#3C4360" transform="translate(1179,189.875)"/>
<path d="M0 0 C0.33 0 0.66 0 1 0 C4.58 25.68 7.2 51.44 9.62 77.25 C9.77 78.81 9.92 80.37 10.07 81.93 C11.07 92.62 12.05 103.31 13 114 C13.11 115.21 13.11 115.21 13.22 116.44 C13.66 121.36 14.09 126.28 14.51 131.2 C14.64 132.74 14.78 134.27 14.91 135.81 C15.68 144.56 16.19 153.22 16 162 C15.67 162 15.34 162 15 162 C15 159.03 15 156.06 15 153 C14.34 153 13.68 153 13 153 C12.88 146.25 12.88 146.25 14 144 C13.34 144 12.68 144 12 144 C11.88 143.21 11.76 142.41 11.63 141.59 C10.19 132.28 8.76 122.96 7.32 113.65 C6.94 111.2 6.56 108.75 6.18 106.3 C2.53 82.63 2.53 82.63 -1.29 58.99 C-1.46 57.98 -1.62 56.98 -1.79 55.94 C-2.54 51.42 -3.3 46.91 -4.07 42.39 C-4.33 40.83 -4.59 39.26 -4.86 37.69 C-4.97 37.02 -5.09 36.34 -5.21 35.65 C-6.21 29.66 -6.64 23.62 -5.2 17.68 C-5.02 16.96 -4.85 16.24 -4.68 15.5 C-4.49 14.78 -4.31 14.06 -4.12 13.31 C-3.95 12.58 -3.78 11.85 -3.6 11.09 C-2.66 7.25 -1.59 3.63 0 0 Z " fill="#FCFDFF" transform="translate(87,410)"/>
<path d="M0 0 C3.96 0 7.92 0 12 0 C14.01 4.8 16.02 9.59 18.02 14.39 C18.7 16.02 19.38 17.64 20.06 19.26 C23.79 28.14 27.46 37.05 31 46.01 C31.3 46.77 31.6 47.53 31.91 48.31 C33.1 51.35 34 53.71 34 57 C32.4 57.14 30.79 57.23 29.19 57.31 C28.29 57.37 27.4 57.43 26.48 57.49 C24 57 24 57 22.52 54.9 C20.85 51.71 19.48 48.49 18.14 45.14 C17.88 44.49 17.62 43.83 17.35 43.16 C16.79 41.76 16.23 40.37 15.67 38.97 C11.38 28.2 7.04 17.48 2.18 6.95 C0 2.19 0 2.19 0 0 Z " fill="#FBCA50" transform="translate(1105,0)"/>
<path d="M0 0 C0.99 0 1.98 0 3 0 C5.01 5.92 5.38 9.87 2.84 15.65 C2.35 16.52 1.87 17.4 1.38 18.31 C0.84 19.3 0.3 20.28 -0.25 21.3 C-0.83 22.34 -1.41 23.37 -2 24.44 C-2.88 26.03 -2.88 26.03 -3.77 27.66 C-7.49 34.4 -11.31 41.08 -15.37 47.62 C-16.89 50.08 -18.08 52.24 -19 55 C-22.63 55 -26.26 55 -30 55 C-26.76 48.26 -23.34 41.78 -19.5 35.38 C-12.58 23.82 -6.33 11.89 0 0 Z " fill="#FCFDFF" transform="translate(1171,849)"/>
<path d="M0 0 C0.33 0 0.66 0 1 0 C1.2 2 1.39 4.01 1.59 6.01 C1.71 7.29 1.84 8.58 1.97 9.91 C2.24 12.74 2.51 15.56 2.78 18.39 C3.38 24.77 4 31.14 4.79 37.5 C6.05 48.12 6.07 55.88 2 66 C1.23 68.99 0.62 71.98 0 75 C-0.66 75 -1.32 75 -2 75 C-2.72 69.72 -3.43 64.43 -4.14 59.15 C-4.38 57.35 -4.62 55.56 -4.86 53.76 C-5.22 51.17 -5.56 48.59 -5.91 46 C-6.02 45.2 -6.12 44.41 -6.24 43.59 C-7.86 31.29 -7.86 31.29 -5 27 C-4.5 24.95 -4.08 22.88 -3.71 20.8 C-3.49 19.59 -3.27 18.38 -3.05 17.14 C-2.83 15.88 -2.6 14.61 -2.38 13.31 C-2.15 12.04 -1.92 10.76 -1.68 9.45 C-1.11 6.3 -0.55 3.15 0 0 Z " fill="#FBCA51" transform="translate(82,357)"/>
<path d="M0 0 C0.66 0 1.32 0 2 0 C2.47 0.96 2.95 1.92 3.43 2.9 C7.46 11.02 11.58 19.07 15.85 27.06 C18.32 31.67 20.68 36.32 23 41 C19.37 41 15.74 41 12 41 C11.51 40 11.51 40 11 38.97 C10.53 38.01 10.05 37.05 9.56 36.06 C8.76 34.42 8.76 34.42 7.95 32.75 C6.58 30.03 5.08 27.44 3.49 24.84 C-3.05 13.88 -3.05 13.88 -2.91 8.25 C-2.16 5.32 -1.3 2.71 0 0 Z " fill="#FCFDFF" transform="translate(102,863)"/>
<path d="M0 0 C1.94 1.56 1.94 1.56 3 4 C3.62 9.87 3.62 9.87 1.94 12.94 C-1.13 14.62 -3.58 14.36 -7 14 C-9.44 12.94 -9.44 12.94 -11 11 C-11.57 7.08 -11.59 4.93 -9.44 1.56 C-6.07 -0.59 -3.92 -0.57 0 0 Z " fill="#3C4360" transform="translate(1173,793)"/>
<path d="M0 0 C2.31 1.56 2.31 1.56 4 4 C4.42 7.44 4.61 9.82 3 12.94 C-0.24 14.66 -3.42 14.53 -7 14 C-9 12.94 -9 12.94 -10 11 C-10.39 6.63 -10.46 4.69 -8 1 C-4.96 -0.01 -3.16 -0.39 0 0 Z " fill="#3C4360" transform="translate(1172,96)"/>
<path d="M0 0 C5.98 0.12 5.98 0.12 7.09 1.23 C7.16 2.92 7.17 4.61 7.15 6.29 C7.14 7.21 7.13 8.13 7.12 9.08 C7.11 9.79 7.1 10.5 7.09 11.23 C5.63 11.28 4.17 11.32 2.71 11.36 C1.9 11.38 1.09 11.4 0.25 11.43 C-1.91 11.23 -1.91 11.23 -3.91 9.23 C-4.16 5.73 -4.16 5.73 -3.91 2.23 C-1.91 0.23 -1.91 0.23 0 0 Z " fill="#FCFDFF" transform="translate(1148.91015625,756.76953125)"/>
<path d="M0 0 C1.2 2.41 1.1 3.95 1.06 6.62 C1.05 7.44 1.04 8.26 1.04 9.1 C1.02 9.73 1.01 10.35 1 11 C-0.46 11.03 -1.92 11.05 -3.38 11.06 C-4.19 11.07 -5 11.09 -5.84 11.1 C-8 11 -8 11 -10 10 C-10.36 3.65 -10.36 3.65 -8.94 1.06 C-5.99 -0.55 -3.29 -0.19 0 0 Z " fill="#FCFDFF" transform="translate(1155,135)"/>
<path d="M0 0 C1 1 1 1 1.1 3.29 C1.09 4.2 1.07 5.12 1.06 6.06 C1.05 6.98 1.04 7.9 1.04 8.85 C1.02 9.56 1.01 10.27 1 11 C-5.05 11.2 -5.05 11.2 -7 11 C-9 9 -9 9 -9.2 7.05 C-9.1 4.03 -9.1 4.03 -9 1 C-6.02 -0.49 -3.28 -0.12 0 0 Z " fill="#FCFDFF" transform="translate(1136,776)"/>
<path d="M0 0 C0.72 0 1.44 0.01 2.19 0.01 C2.91 0.01 3.63 0 4.38 0 C6.19 0.13 6.19 0.13 7.19 1.13 C7.26 2.65 7.27 4.17 7.25 5.7 C7.24 6.52 7.23 7.35 7.22 8.2 C7.21 8.84 7.2 9.48 7.19 10.13 C5.71 10.16 4.23 10.18 2.75 10.2 C1.51 10.21 1.51 10.21 0.25 10.23 C-1.81 10.13 -1.81 10.13 -2.81 9.13 C-2.95 7.32 -2.95 7.32 -2.94 5.13 C-2.94 4.41 -2.94 3.69 -2.95 2.95 C-2.76 0.48 -2.47 0.18 0 0 Z " fill="#FCFDFF" transform="translate(1129.8125,116.8671875)"/>
<path d="M0 0 C0.66 0 1.32 0 2 0 C5.62 4.04 5.32 8.24 5.3 13.38 C5 16.04 4.35 17.71 3 20 C-0.02 16.99 -0.97 15.57 -1.17 11.23 C-1.05 9.88 -0.91 8.53 -0.75 7.19 C-0.68 6.49 -0.62 5.8 -0.55 5.09 C-0.39 3.39 -0.2 1.69 0 0 Z " fill="#292B41" transform="translate(90,842)"/>
<path d="M0 0 C0.33 0 0.66 0 1 0 C2.1 7.02 2.1 13.91 2 21 C1.67 21 1.34 21 1 21 C0.91 20.04 0.91 20.04 0.82 19.07 C0.73 18.24 0.65 17.41 0.56 16.56 C0.48 15.74 0.4 14.92 0.32 14.07 C0.21 12.01 0.21 12.01 -1 11 C-0.91 9.14 -0.75 7.29 -0.56 5.44 C-0.46 4.43 -0.36 3.41 -0.25 2.37 C-0.17 1.59 -0.09 0.81 0 0 Z " fill="#A5A5B1" transform="translate(103,572)"/>
</svg>
